<svg xmlns="http://www.w3.org/2000/svg" xmlns:xlink="http://www.w3.org/1999/xlink" viewBox="0 0 568.41 75.64"><defs><style>.cls-1{fill:none;stroke-miterlimit:10;stroke-width:12px;stroke:url(#Безымянный_градиент_17);}.cls-2{fill:#231f20;}</style><linearGradient id="Безымянный_градиент_17" x1="70.57" y1="18.91" x2="5.06" y2="56.73" gradientUnits="userSpaceOnUse"><stop offset="0" stop-color="#f89950"/><stop offset="1" stop-color="#f37770"/></linearGradient></defs><title>Logo_3</title><g id="Слой_2" data-name="Слой 2"><g id="Слой_1-2" data-name="Слой 1"><circle class="cls-1" cx="37.82" cy="37.82" r="31.82"/><path class="cls-2" d="M106.53,58.67V52.31q4,.54,5.91-1.92t2-9.42V16.67h28.14v42h-6.9V23.27H121.29V40.85a31.83,31.83,0,0,1-1.17,9.3,12.08,12.08,0,0,1-3.33,5.67,11.21,11.21,0,0,1-4.65,2.52A16.44,16.44,0,0,1,106.53,58.67Z"/><path class="cls-2" d="M165.57,59.45a15.38,15.38,0,0,1-11.22-4.56,15.15,15.15,0,0,1-4.62-11.22,15.15,15.15,0,0,1,4.62-11.22,16.12,16.12,0,0,1,22.47,0,15.2,15.2,0,0,1,4.59,11.22,15.62,15.62,0,0,1-15.84,15.78Zm-6.66-9a9.56,9.56,0,0,0,13.32,0,9.19,9.19,0,0,0,2.7-6.78,9.19,9.19,0,0,0-2.7-6.78,9.56,9.56,0,0,0-13.32,0,9.19,9.19,0,0,0-2.7,6.78A9.19,9.19,0,0,0,158.91,50.45Z"/><path class="cls-2" d="M208.29,28.67v6.24H194.67V58.67h-6.48v-30Z"/><path class="cls-2" d="M226.53,59.45a15.38,15.38,0,0,1-11.22-4.56,15.15,15.15,0,0,1-4.62-11.22,15.15,15.15,0,0,1,4.62-11.22,16.12,16.12,0,0,1,22.47,0,15.2,15.2,0,0,1,4.59,11.22,15.62,15.62,0,0,1-15.84,15.78Zm-6.66-9a9.56,9.56,0,0,0,13.32,0,9.19,9.19,0,0,0,2.7-6.78,9.19,9.19,0,0,0-2.7-6.78,9.56,9.56,0,0,0-13.32,0,9.19,9.19,0,0,0-2.7,6.78A9.19,9.19,0,0,0,219.87,50.45Z"/><path class="cls-2" d="M270.87,28.67v6.24h-9.78V58.67h-6.48V34.91h-9.84V28.67Z"/><path class="cls-2" d="M297.82,28.67h5v30h-6.36V39.51L281.07,58.67h-4.92v-30h6.36v19Z"/><path class="cls-2" d="M338,28.67v30h-6.48V34.79H317.73V58.67h-6.48v-30Z"/><path class="cls-2" d="M376.41,59.45a15.38,15.38,0,0,1-11.22-4.56,15.15,15.15,0,0,1-4.62-11.22,15.15,15.15,0,0,1,4.62-11.22,16.12,16.12,0,0,1,22.47,0,15.2,15.2,0,0,1,4.59,11.22,15.62,15.62,0,0,1-15.84,15.78Zm-6.66-9a9.56,9.56,0,0,0,13.32,0,9.19,9.19,0,0,0,2.7-6.78,9.19,9.19,0,0,0-2.7-6.78,9.56,9.56,0,0,0-13.32,0,9.19,9.19,0,0,0-2.7,6.78A9.19,9.19,0,0,0,369.75,50.45Z"/><path class="cls-2" d="M419.25,28.67h6.48v30h-6.48V46.73H405.51V58.67H399v-30h6.48V40.61h13.74Z"/><path class="cls-2" d="M459.45,28.67v30H453V34.91H443V46.07q0,7.14-3.12,10.14T431,58.67V52.61a4.13,4.13,0,0,0,4.14-1.14q1.38-1.62,1.38-5.7V28.67Z"/><path class="cls-2" d="M491.67,28.67h6.48v30h-6.48V54.35q-3.66,5.1-10.5,5.1a14.07,14.07,0,0,1-10.56-4.59,15.61,15.61,0,0,1-4.38-11.19,15.58,15.58,0,0,1,4.38-11.22,14.11,14.11,0,0,1,10.56-4.56q6.84,0,10.5,5ZM475.41,50.54a9.78,9.78,0,0,0,13.56,0,9.37,9.37,0,0,0,2.7-6.87A9.37,9.37,0,0,0,489,36.8a9.78,9.78,0,0,0-13.56,0,9.37,9.37,0,0,0-2.7,6.87A9.37,9.37,0,0,0,475.41,50.54Z"/><path class="cls-2" d="M528.28,28.67h5v30H527V39.51L511.52,58.67h-4.91v-30H513v19Zm-16.75-4.2V18.83h16.8v5.64Z"/><path class="cls-2" d="M561.93,28.67h6.48v30h-6.48V46.73H548.19V58.67h-6.48v-30h6.48V40.61h13.74Z"/></g></g></svg>